<?xml version="1.0" standalone="no"?>
<!DOCTYPE svg PUBLIC "-//W3C//DTD SVG 20010904//EN"
 "http://www.w3.org/TR/2001/REC-SVG-20010904/DTD/svg10.dtd">
<svg version="1.0" xmlns="http://www.w3.org/2000/svg"
 width="500.000000pt" height="500.000000pt" viewBox="0 0 500.000000 500.000000"
 preserveAspectRatio="xMidYMid meet">

<g transform="translate(0.000000,500.000000) scale(0.100000,-0.100000)"
fill="#000000" stroke="none">
<path d="M2547 4149 c-17 -10 -30 -31 -93 -147 l-30 -57 -97 -10 c-149 -16
-135 -33 22 -26 59 3 63 2 57 -15 -4 -11 -17 -44 -28 -74 -34 -93 -47 -118
-76 -138 -35 -25 -113 -64 -117 -60 -2 2 -10 35 -18 72 -11 51 -11 78 -4 103
19 62 -30 67 -69 8 -13 -21 -14 -34 -4 -92 24 -148 27 -134 -30 -172 -92 -61
-114 -115 -66 -160 19 -18 37 -23 75 -24 43 -1 56 4 81 28 35 34 54 94 46 146
-6 35 -4 37 52 72 31 19 58 34 59 33 2 -1 -5 -41 -16 -88 -10 -46 -17 -100
-16 -118 3 -37 34 -70 65 -70 21 0 79 63 159 173 l56 78 6 -40 c15 -108 78
-92 168 42 18 26 34 47 36 47 2 0 -1 -14 -7 -31 -16 -45 -5 -139 17 -155 31
-23 56 -16 94 24 34 37 121 181 121 202 0 23 -17 6 -55 -52 -47 -73 -93 -128
-107 -128 -16 0 0 117 24 172 11 25 18 55 16 65 -4 24 -45 29 -69 7 -10 -9
-20 -15 -22 -13 -1 2 -10 18 -19 34 -34 61 -101 37 -159 -58 -64 -106 -235
-311 -250 -301 -13 7 -6 42 33 169 33 108 104 294 118 309 5 5 34 11 65 12 31
2 60 6 65 9 24 15 5 21 -50 17 -33 -2 -60 -1 -60 2 0 12 42 90 65 121 40 55
49 76 34 86 -19 12 -50 11 -72 -2z m198 -409 c6 -31 1 -43 -46 -108 -29 -39
-57 -72 -62 -72 -28 0 33 190 70 218 21 15 30 7 38 -38z m-334 -17 c-12 -20
-14 -14 -5 12 4 9 9 14 11 11 3 -2 0 -13 -6 -23z m-291 -218 c0 -40 -26 -82
-57 -92 -67 -24 -71 19 -7 76 55 48 64 50 64 16z"/>
<path d="M1625 4111 c-14 -28 -20 -31 -61 -31 -31 0 -46 -5 -50 -15 -9 -23 15
-45 48 -45 27 0 30 -2 24 -26 -4 -14 -25 -69 -47 -123 -36 -87 -44 -98 -72
-107 -18 -5 -32 -13 -32 -18 0 -7 22 -23 43 -32 1 -1 -2 -12 -7 -25 -49 -116
-89 -232 -84 -245 3 -8 19 -22 36 -31 28 -14 32 -14 43 1 6 10 24 56 39 104
14 48 35 110 45 137 10 28 21 57 24 66 3 12 34 24 100 39 53 13 96 28 96 33 0
6 -32 7 -86 3 l-87 -7 6 23 c3 13 21 65 39 117 l33 95 80 13 c76 13 214 67
202 79 -3 3 -38 1 -79 -4 -169 -24 -182 -24 -193 1 -15 34 -41 33 -60 -2z"/>
<path d="M1894 3840 c-55 -22 -117 -132 -119 -210 0 -30 -4 -67 -9 -82 -10
-36 8 -66 50 -84 30 -13 38 -13 64 1 31 16 200 221 200 243 0 25 -19 11 -61
-45 -62 -83 -119 -142 -151 -159 -25 -13 -29 -13 -35 2 -3 9 -2 41 3 73 8 51
12 57 44 73 20 9 55 37 78 62 53 57 57 98 12 121 -32 17 -45 18 -76 5z m62
-33 c8 -22 -12 -62 -48 -96 -18 -17 -36 -31 -40 -31 -9 0 17 64 44 108 21 34
35 40 44 19z"/>
<path d="M3018 3820 c-28 -28 -29 -34 -23 -83 4 -28 11 -68 16 -87 16 -61 11
-73 -42 -109 -91 -62 -113 -115 -65 -160 19 -18 37 -23 75 -24 43 -1 56 4 81
28 35 34 54 94 46 145 -6 36 -5 37 69 84 65 41 95 70 95 90 0 13 -23 5 -53
-18 -36 -27 -117 -69 -122 -64 -2 2 -10 35 -18 73 -10 49 -12 78 -5 97 11 31
5 58 -12 58 -7 0 -25 -14 -42 -30z m12 -315 c0 -40 -26 -82 -57 -92 -67 -24
-71 19 -7 76 55 48 64 50 64 16z"/>
<path d="M1762 3590 c0 -14 2 -19 5 -12 2 6 2 18 0 25 -3 6 -5 1 -5 -13z"/>
<path d="M2439 2781 c-87 -54 -113 -120 -67 -168 l21 -23 -44 -40 c-24 -23
-38 -38 -30 -34 16 8 16 8 -27 -73 -17 -34 -32 -70 -32 -80 0 -14 -2 -15 -9
-4 -6 9 -8 3 -7 -19 1 -18 9 -38 21 -46 26 -19 119 -18 162 3 40 19 99 101
109 151 5 25 16 38 48 54 52 28 30 34 -62 18 -70 -12 -92 -23 -92 -46 0 -14
14 -13 73 3 16 4 17 2 8 -15 -21 -40 -112 -130 -147 -147 -33 -15 -38 -15 -52
-2 -13 14 -13 22 -2 63 16 55 83 159 113 176 12 6 36 14 52 18 21 4 30 12 30
25 0 16 -8 20 -40 22 -22 1 -46 2 -52 2 -7 1 -13 12 -13 25 0 31 92 116 126
116 30 0 32 -27 4 -63 -24 -30 -25 -37 -7 -37 21 0 46 32 53 67 5 26 1 37 -19
57 -34 33 -62 33 -118 -3z"/>
<path d="M2163 1835 c-22 -15 -105 -140 -140 -210 -35 -70 -104 -277 -124
-374 -41 -198 -13 -299 76 -277 33 8 96 75 156 164 l49 74 0 -36 c0 -50 45
-99 90 -99 26 0 42 9 74 44 23 24 51 58 63 74 l22 30 1 -30 c0 -16 9 -45 20
-62 37 -61 76 -39 164 91 30 45 31 41 11 -33 -12 -47 -26 -67 -94 -135 -140
-143 -169 -214 -112 -275 77 -82 141 -2 226 280 l26 87 99 79 c88 70 103 79
133 75 l35 -4 -34 -73 c-49 -107 -43 -185 15 -185 30 0 99 57 145 119 l43 59
26 -29 c32 -36 63 -37 99 -2 23 22 28 24 28 9 0 -33 30 -76 53 -76 26 0 91 64
127 123 12 21 24 36 27 34 2 -3 -1 -25 -8 -51 -19 -78 7 -146 56 -146 40 0
129 116 177 233 17 40 -13 8 -69 -72 -57 -82 -86 -111 -98 -99 -10 9 15 127
38 180 16 39 17 51 7 63 -16 19 -40 19 -68 -1 -20 -14 -23 -14 -29 3 -32 90
-107 62 -183 -68 -45 -77 -104 -129 -123 -110 -13 13 17 113 40 132 21 18 15
38 -14 45 -37 10 -56 -6 -73 -63 -9 -29 -39 -82 -72 -125 -110 -143 -134 -145
-77 -4 22 55 38 107 37 115 -2 10 -20 18 -47 23 -24 4 -46 10 -50 13 -3 4 2
20 12 37 18 32 12 47 -20 48 -23 0 -54 -44 -51 -72 2 -24 -8 -37 -80 -93 -45
-36 -84 -65 -87 -65 -3 0 11 32 30 71 40 78 36 103 -14 97 -20 -2 -42 -26
-101 -113 -74 -109 -110 -139 -110 -94 0 35 60 147 108 200 36 41 50 49 78 49
40 0 55 23 31 47 -19 20 -66 19 -104 0 -32 -17 -98 -91 -191 -213 -67 -88
-135 -145 -154 -126 -13 13 -1 118 15 133 7 5 34 24 61 41 87 56 113 138 53
166 -62 30 -111 -10 -195 -159 -68 -122 -155 -244 -188 -266 -25 -16 -27 -16
-41 3 -26 36 11 238 55 302 107 154 160 238 193 306 47 96 51 145 14 181 -28
29 -33 30 -62 10z m44 -74 c-7 -54 -150 -332 -163 -318 -7 7 65 205 96 268 27
53 54 89 67 89 3 0 3 -17 0 -39z m-117 -61 c-6 -11 -13 -20 -16 -20 -2 0 0 9
6 20 6 11 13 20 16 20 2 0 0 -9 -6 -20z m290 -296 c0 -26 -81 -116 -87 -97 -2
6 6 31 18 55 39 78 69 96 69 42z m1066 -21 c3 -16 8 -34 10 -42 5 -15 -101
-161 -117 -161 -23 0 32 172 68 212 22 25 32 23 39 -9z m-1246 -173 c-5 -22
-8 -27 -9 -13 -1 21 9 56 14 51 2 -2 0 -19 -5 -38z m344 -264 c-21 -55 -50
-111 -67 -129 -28 -31 -29 -31 -44 -12 -19 26 -10 66 26 118 44 64 115 141
119 129 1 -5 -14 -53 -34 -106z m7 -29 c-10 -9 -11 -8 -5 6 3 10 9 15 12 12 3
-3 0 -11 -7 -18z"/>
<path d="M1689 1762 c-113 -74 -277 -420 -255 -537 9 -45 61 -105 91 -105 27
0 54 31 145 170 34 52 60 86 57 75 -14 -50 -27 -144 -27 -199 0 -139 111 -197
155 -81 22 57 12 70 -21 27 -55 -70 -70 -29 -49 128 17 116 60 253 95 297 11
14 20 34 20 44 0 21 -32 42 -52 33 -7 -3 -61 -78 -120 -167 -108 -163 -194
-265 -210 -249 -4 4 -4 30 1 56 5 26 6 57 3 68 -4 15 -2 19 7 14 9 -6 10 0 5
20 -5 18 -3 25 4 20 6 -3 8 1 5 12 -2 10 3 34 11 53 11 23 14 26 10 9 -3 -14
16 18 42 70 53 105 135 200 172 200 15 0 26 -10 37 -36 12 -30 17 -34 34 -24
32 17 35 30 10 56 -26 28 -97 64 -125 64 -10 0 -31 -8 -45 -18z m-108 -269
c-12 -20 -14 -14 -5 12 4 9 9 14 11 11 3 -2 0 -13 -6 -23z m136 -310 c-3 -10
-5 -2 -5 17 0 19 2 27 5 18 2 -10 2 -26 0 -35z"/>
<path d="M3217 1583 c-4 -3 -7 -17 -7 -31 0 -13 -10 -42 -22 -63 -28 -51 -13
-73 28 -40 15 11 24 21 20 21 -10 0 15 44 30 53 17 10 18 39 2 55 -13 13 -41
16 -51 5z"/>
</g>
</svg>
